# xmcd
#
# Track frame offsets: 
#        150
#        26041
#        53364
#        67860
#        93448
#        108215
#        123348
#        141887
#        156992
#        181145
#        192342
#        202040
#        232666
#
# Disc length: 3280 seconds
#
# Revision: 1
# Processed by: cddbd v1.5.2PL0 Copyright (c) Steve Scherf et al.
# Submitted via: ExactAudioCopy v0.95b4
#
DISCID=a40cce0d
DTITLE=Daerr, Sieverts, Jütte - Germany 12 Points
DYEAR=2006
DGENRE=Jazz
TTITLE0=Du kannst nicht immer 17 sein
TTITLE1=Dschingings Khan
TTITLE2=Griechischer Wein
TTITLE3=Ein bißchen Frieden
TTITLE4=Dschingings Khan
TTITLE5=Do You Speak English
TTITLE6=Theater
TTITLE7=Dann heirat doch dein Büro
TTITLE8=Moskau
TTITLE9=Dschingings Khan
TTITLE10=Fiesta Mexicana
TTITLE11=Ein bißchen Frieden II
TTITLE12=Lass die Sonne in dein Herz
EXTD=YEAR: 2006
EXTT0=
EXTT1=
EXTT2=
EXTT3=
EXTT4=
EXTT5=
EXTT6=
EXTT7=
EXTT8=
EXTT9=
EXTT10=
EXTT11=
EXTT12=
PLAYORDER=
